<?xml version="1.0" standalone="no"?>
<svg xmlns:xlink="http://www.w3.org/1999/xlink" id="wave" style="transform:rotate(0deg); transition: 0.3s" viewBox="0 0 1440 450" version="1.1" xmlns="http://www.w3.org/2000/svg"><defs><linearGradient id="sw-gradient-0" x1="0" x2="0" y1="1" y2="0"><stop stop-color="rgba(42.263, 42.263, 42.263, 1)" offset="0%"/><stop stop-color="rgba(224.406, 223.044, 220.034, 1)" offset="100%"/></linearGradient></defs><path style="transform:translate(0, 0px); opacity:1"  d="M0,270L48,292.5C96,315,192,360,288,360C384,360,480,315,576,262.5C672,210,768,150,864,172.5C960,195,1056,300,1152,300C1248,300,1344,195,1440,127.5C1536,60,1632,30,1728,15C1824,0,1920,0,2016,52.5C2112,105,2208,210,2304,255C2400,300,2496,285,2592,270C2688,255,2784,240,2880,217.5C2976,195,3072,165,3168,157.5C3264,150,3360,165,3456,202.5C3552,240,3648,300,3744,292.5C3840,285,3936,210,4032,202.5C4128,195,4224,255,4320,285C4416,315,4512,315,4608,307.5C4704,300,4800,285,4896,255C4992,225,5088,180,5184,150C5280,120,5376,105,5472,135C5568,165,5664,240,5760,240C5856,240,5952,165,6048,142.5C6144,120,6240,150,6336,202.5C6432,255,6528,330,6624,352.5C6720,375,6816,345,6864,330L6912,315L6912,450L6864,450C6816,450,6720,450,6624,450C6528,450,6432,450,6336,450C6240,450,6144,450,6048,450C5952,450,5856,450,5760,450C5664,450,5568,450,5472,450C5376,450,5280,450,5184,450C5088,450,4992,450,4896,450C4800,450,4704,450,4608,450C4512,450,4416,450,4320,450C4224,450,4128,450,4032,450C3936,450,3840,450,3744,450C3648,450,3552,450,3456,450C3360,450,3264,450,3168,450C3072,450,2976,450,2880,450C2784,450,2688,450,2592,450C2496,450,2400,450,2304,450C2208,450,2112,450,2016,450C1920,450,1824,450,1728,450C1632,450,1536,450,1440,450C1344,450,1248,450,1152,450C1056,450,960,450,864,450C768,450,672,450,576,450C480,450,384,450,288,450C192,450,96,450,48,450L0,450Z"/></svg>